# xmcd
#
# Track frame offsets:
#	150
#	15283
#	26507
#	39372
#	54436
#	69132
#	87038
#	100805
#	115707
#	130980
#	143921
#	153486
#	166888
#	178428
#
# Disc length: 2595 seconds
#
# Revision: 1
# Processed by: cddbd v1.5.2PL0 Copyright (c) Steve Scherf et al.
# Submitted via: audiograbber 1.83.01
#
DISCID=a80a210e
DTITLE=Nancy Mareen - Best of
DYEAR=1900
DGENRE=country
TTITLE0=SOME REACH
TTITLE1=CRY TO ME
TTITLE2=OAKIE FROM MUSKOGIE
TTITLE3=SEA TO COWBOYHATS
TTITLE4=DON'T WORRY BOUT ME
TTITLE5=I BELIEVE IN YOU
TTITLE6=HONKY TONK BABY
TTITLE7=HAD A DREAM
TTITLE8=I'M NOT LISA
TTITLE9=LITTLE OLD WINE DRINKER
TTITLE10=WALKING AFTER MIDNIGHT
TTITLE11=FEELING KIND OF LONLY TONIGHT
TTITLE12=I WANNA BE A COBOYSWEATHEART
TTITLE13=MRCY
EXTD=
EXTT0=
EXTT1=
EXTT2=
EXTT3=
EXTT4=
EXTT5=
EXTT6=
EXTT7=
EXTT8=
EXTT9=
EXTT10=
EXTT11=
EXTT12=
EXTT13=
PLAYORDER=
